<svg xmlns="http://www.w3.org/2000/svg" viewBox="0 0 410 404">
  <path d="M399.641 59.5246L215.643 388.545C211.844 395.338 202.084 395.378 198.228 388.618L10.5817 59.5563C6.38087 52.1896 12.6802 43.2665 21.0281 44.7586L205.223 77.6824C206.398 77.8924 207.601 77.8904 208.776 77.6763L389.119 44.8058C397.439 43.2894 403.768 52.1434 399.641 59.5246Z" fill="url(#paint0_linear)"/>
  <path d="M292.965 1.5744L156.801 28.2552C154.563 28.6937 152.906 30.5903 152.771 32.8664L144.395 174.33C144.198 177.662 147.258 180.248 150.51 179.498L188.42 170.749C191.838 169.961 195.172 172.887 194.885 176.346L192.133 229.5C191.844 233.083 195.301 235.819 198.739 234.872L224.17 228.44C227.637 227.484 231.09 230.296 230.707 233.865L225.578 278.686C225.136 282.781 229.354 285.729 232.865 283.678L242.323 278.006C245.96 275.878 250.329 278.281 250.343 282.37L251.853 385.505C251.879 390.948 258.479 393.141 261.596 388.626L263.889 385.072C263.889 385.072 377.564 209.489 379.937 205.858C382.31 202.227 380.878 197.743 377.679 196.111L334.116 174.032C330.998 172.441 328.104 169.443 327.356 166.135L313.219 99.6498C312.462 96.2943 315.494 93.3162 318.751 93.9325L379.301 105.388C382.787 106.048 385.512 103.452 384.971 99.9909L376.552 51.9457C375.946 48.4223 372.189 46.4779 369.067 48.0641L292.965 1.5744Z" fill="url(#paint1_linear)"/>
  <defs>
    <linearGradient id="paint0_linear" x1="6.00017" y1="32.9999" x2="235" y2="344" gradientUnits="userSpaceOnUse">
      <stop stop-color="#41D1FF"/>
      <stop offset="1" stop-color="#BD34FE"/>
    </linearGradient>
    <linearGradient id="paint1_linear" x1="194.651" y1="8.81818" x2="236.076" y2="292.989" gradientUnits="userSpaceOnUse">
      <stop stop-color="#FFEA83"/>
      <stop offset="0.0833333" stop-color="#FFDD35"/>
      <stop offset="1" stop-color="#FFA800"/>
    </linearGradient>
  </defs>
</svg>
